<svg width="27" height="27" viewBox="0 0 27 27" fill="none" xmlns="http://www.w3.org/2000/svg">
<path d="M20 9.70833H18.9167V7.54167C18.9167 4.55167 16.49 2.125 13.5 2.125C10.51 2.125 8.08337 4.55167 8.08337 7.54167V9.70833H7.00004C5.80837 9.70833 4.83337 10.6833 4.83337 11.875V22.7083C4.83337 23.9 5.80837 24.875 7.00004 24.875H20C21.1917 24.875 22.1667 23.9 22.1667 22.7083V11.875C22.1667 10.6833 21.1917 9.70833 20 9.70833ZM10.25 7.54167C10.25 5.74333 11.7017 4.29167 13.5 4.29167C15.2984 4.29167 16.75 5.74333 16.75 7.54167V9.70833H10.25V7.54167ZM20 22.7083H7.00004V11.875H20V22.7083ZM13.5 19.4583C14.6917 19.4583 15.6667 18.4833 15.6667 17.2917C15.6667 16.1 14.6917 15.125 13.5 15.125C12.3084 15.125 11.3334 16.1 11.3334 17.2917C11.3334 18.4833 12.3084 19.4583 13.5 19.4583Z" fill="#FFD700"/>
</svg>
